<svg id="visual" viewBox="0 0 124 124" width="124" height="124" xmlns="http://www.w3.org/2000/svg"
  xmlns:xlink="http://www.w3.org/1999/xlink" version="1.1">
  <rect x="0" y="0" width="124" height="124" fill="#341168"></rect>
  <path
    d="M0 56L3.5 47.5C7 39 14 22 20.8 15.3C27.7 8.7 34.3 12.3 41.2 20.3C48 28.3 55 40.7 62 42.5C69 44.3 76 35.7 82.8 33.5C89.7 31.3 96.3 35.7 103.2 36.7C110 37.7 117 35.3 120.5 34.2L124 33L124 125L120.5 125C117 125 110 125 103.2 125C96.3 125 89.7 125 82.8 125C76 125 69 125 62 125C55 125 48 125 41.2 125C34.3 125 27.7 125 20.8 125C14 125 7 125 3.5 125L0 125Z"
    fill="#9147ff"></path>
  <path
    d="M0 54L3.5 54.5C7 55 14 56 20.8 55C27.7 54 34.3 51 41.2 43C48 35 55 22 62 18.2C69 14.3 76 19.7 82.8 27.8C89.7 36 96.3 47 103.2 55.2C110 63.3 117 68.7 120.5 71.3L124 74L124 125L120.5 125C117 125 110 125 103.2 125C96.3 125 89.7 125 82.8 125C76 125 69 125 62 125C55 125 48 125 41.2 125C34.3 125 27.7 125 20.8 125C14 125 7 125 3.5 125L0 125Z"
    fill="#8d44fa"></path>
  <path
    d="M0 76L3.5 75.5C7 75 14 74 20.8 70.3C27.7 66.7 34.3 60.3 41.2 52.5C48 44.7 55 35.3 62 37.5C69 39.7 76 53.3 82.8 52.7C89.7 52 96.3 37 103.2 34.5C110 32 117 42 120.5 47L124 52L124 125L120.5 125C117 125 110 125 103.2 125C96.3 125 89.7 125 82.8 125C76 125 69 125 62 125C55 125 48 125 41.2 125C34.3 125 27.7 125 20.8 125C14 125 7 125 3.5 125L0 125Z"
    fill="#8941f5"></path>
  <path
    d="M0 50L3.5 55.2C7 60.3 14 70.7 20.8 69.7C27.7 68.7 34.3 56.3 41.2 53C48 49.7 55 55.3 62 59.3C69 63.3 76 65.7 82.8 67.7C89.7 69.7 96.3 71.3 103.2 73.7C110 76 117 79 120.5 80.5L124 82L124 125L120.5 125C117 125 110 125 103.2 125C96.3 125 89.7 125 82.8 125C76 125 69 125 62 125C55 125 48 125 41.2 125C34.3 125 27.7 125 20.8 125C14 125 7 125 3.5 125L0 125Z"
    fill="#863ef0"></path>
  <path
    d="M0 41L3.5 48C7 55 14 69 20.8 74C27.7 79 34.3 75 41.2 75.8C48 76.7 55 82.3 62 80.8C69 79.3 76 70.7 82.8 65.5C89.7 60.3 96.3 58.7 103.2 57C110 55.3 117 53.7 120.5 52.8L124 52L124 125L120.5 125C117 125 110 125 103.2 125C96.3 125 89.7 125 82.8 125C76 125 69 125 62 125C55 125 48 125 41.2 125C34.3 125 27.7 125 20.8 125C14 125 7 125 3.5 125L0 125Z"
    fill="#823beb"></path>
  <path
    d="M0 87L3.5 81.2C7 75.3 14 63.7 20.8 57C27.7 50.3 34.3 48.7 41.2 52.8C48 57 55 67 62 68.2C69 69.3 76 61.7 82.8 57.5C89.7 53.3 96.3 52.7 103.2 57.7C110 62.7 117 73.3 120.5 78.7L124 84L124 125L120.5 125C117 125 110 125 103.2 125C96.3 125 89.7 125 82.8 125C76 125 69 125 62 125C55 125 48 125 41.2 125C34.3 125 27.7 125 20.8 125C14 125 7 125 3.5 125L0 125Z"
    fill="#7e38e6"></path>
  <path
    d="M0 86L3.5 84.2C7 82.3 14 78.7 20.8 75.5C27.7 72.3 34.3 69.7 41.2 69.3C48 69 55 71 62 70.3C69 69.7 76 66.3 82.8 67.8C89.7 69.3 96.3 75.7 103.2 78.3C110 81 117 80 120.5 79.5L124 79L124 125L120.5 125C117 125 110 125 103.2 125C96.3 125 89.7 125 82.8 125C76 125 69 125 62 125C55 125 48 125 41.2 125C34.3 125 27.7 125 20.8 125C14 125 7 125 3.5 125L0 125Z"
    fill="#7a35e2"></path>
  <path
    d="M0 85L3.5 84.8C7 84.7 14 84.3 20.8 82.8C27.7 81.3 34.3 78.7 41.2 82C48 85.3 55 94.7 62 96.3C69 98 76 92 82.8 87.8C89.7 83.7 96.3 81.3 103.2 79.8C110 78.3 117 77.7 120.5 77.3L124 77L124 125L120.5 125C117 125 110 125 103.2 125C96.3 125 89.7 125 82.8 125C76 125 69 125 62 125C55 125 48 125 41.2 125C34.3 125 27.7 125 20.8 125C14 125 7 125 3.5 125L0 125Z"
    fill="#7732dd"></path>
  <path
    d="M0 103L3.5 103.3C7 103.7 14 104.3 20.8 102.5C27.7 100.7 34.3 96.3 41.2 92.2C48 88 55 84 62 86.2C69 88.3 76 96.7 82.8 101C89.7 105.3 96.3 105.7 103.2 103.2C110 100.7 117 95.3 120.5 92.7L124 90L124 125L120.5 125C117 125 110 125 103.2 125C96.3 125 89.7 125 82.8 125C76 125 69 125 62 125C55 125 48 125 41.2 125C34.3 125 27.7 125 20.8 125C14 125 7 125 3.5 125L0 125Z"
    fill="#732fd8"></path>
  <path
    d="M0 90L3.5 93.5C7 97 14 104 20.8 107.2C27.7 110.3 34.3 109.7 41.2 107.3C48 105 55 101 62 97.2C69 93.3 76 89.7 82.8 91.3C89.7 93 96.3 100 103.2 103.7C110 107.3 117 107.7 120.5 107.8L124 108L124 125L120.5 125C117 125 110 125 103.2 125C96.3 125 89.7 125 82.8 125C76 125 69 125 62 125C55 125 48 125 41.2 125C34.3 125 27.7 125 20.8 125C14 125 7 125 3.5 125L0 125Z"
    fill="#6f2cd3"></path>
  <path
    d="M0 105L3.5 106.3C7 107.7 14 110.3 20.8 111.7C27.7 113 34.3 113 41.2 111.8C48 110.7 55 108.3 62 106.2C69 104 76 102 82.8 100.8C89.7 99.7 96.3 99.3 103.2 99.8C110 100.3 117 101.7 120.5 102.3L124 103L124 125L120.5 125C117 125 110 125 103.2 125C96.3 125 89.7 125 82.8 125C76 125 69 125 62 125C55 125 48 125 41.2 125C34.3 125 27.7 125 20.8 125C14 125 7 125 3.5 125L0 125Z"
    fill="#6c29ce"></path>
  <path
    d="M0 105L3.5 106C7 107 14 109 20.8 109.8C27.7 110.7 34.3 110.3 41.2 109.3C48 108.3 55 106.7 62 106.5C69 106.3 76 107.7 82.8 109.8C89.7 112 96.3 115 103.2 116.8C110 118.7 117 119.3 120.5 119.7L124 120L124 125L120.5 125C117 125 110 125 103.2 125C96.3 125 89.7 125 82.8 125C76 125 69 125 62 125C55 125 48 125 41.2 125C34.3 125 27.7 125 20.8 125C14 125 7 125 3.5 125L0 125Z"
    fill="#6826c9"></path>
</svg>